<svg width="28" height="36" viewBox="0 0 28 36" fill="none" xmlns="http://www.w3.org/2000/svg">
<path fill-rule="evenodd" clip-rule="evenodd" d="M9.09503 1.33267C8.82426 0.851312 8.21455 0.680592 7.73319 0.951356C7.25183 1.22212 7.08111 1.83183 7.35188 2.31319L8.70618 4.72084C6.58586 6.2655 5.1662 8.71405 5.01365 11.5001H22.9863C22.8291 8.62944 21.3267 6.11708 19.0987 4.58262L20.3752 2.31319C20.646 1.83183 20.4753 1.22212 19.9939 0.951356C19.5126 0.680592 18.9029 0.851312 18.6321 1.33267L17.3352 3.63826C16.3038 3.2265 15.1783 3.00005 14 3.00005C12.7368 3.00005 11.5345 3.26028 10.4435 3.73004L9.09503 1.33267ZM5 11.9896L4.99999 12.0001L5 12.0105V11.9896ZM10.5122 7.70824C10.5122 8.15969 10.1462 8.52565 9.69477 8.52565C9.24332 8.52565 8.87736 8.15969 8.87736 7.70824C8.87736 7.2568 9.24332 6.89084 9.69477 6.89084C10.1462 6.89084 10.5122 7.2568 10.5122 7.70824ZM18.1958 8.52565C18.6472 8.52565 19.0132 8.15969 19.0132 7.70824C19.0132 7.2568 18.6472 6.89084 18.1958 6.89084C17.7444 6.89084 17.3784 7.2568 17.3784 7.70824C17.3784 8.15969 17.7444 8.52565 18.1958 8.52565ZM2.01648 12.4492C0.91191 12.4492 0.0164795 13.3447 0.0164795 14.4492V22.4492C0.0164795 23.5538 0.91191 24.4492 2.01648 24.4492C3.12105 24.4492 4.01648 23.5538 4.01648 22.4492V14.4492C4.01648 13.3447 3.12105 12.4492 2.01648 12.4492ZM22.9453 12.7528H4.94534V20.7528C4.94534 23.3662 6.37759 25.6452 8.5 26.8476V33.0001C8.5 34.1046 9.39543 35.0001 10.5 35.0001C11.6046 35.0001 12.5 34.1046 12.5 33.0001V27.7528H15.5V33.1774C15.5 34.2819 16.3954 35.1774 17.5 35.1774C18.6046 35.1774 19.5 34.2819 19.5 33.1774V26.7843C21.5621 25.5664 22.9453 23.3211 22.9453 20.7528V12.7528ZM23.9836 14.4492C23.9836 13.3447 24.879 12.4492 25.9836 12.4492C27.0881 12.4492 27.9836 13.3447 27.9836 14.4492V22.4492C27.9836 23.5538 27.0881 24.4492 25.9836 24.4492C24.879 24.4492 23.9836 23.5538 23.9836 22.4492V14.4492Z" fill="#3DDC84"/>
</svg>
