<svg width="28" height="32" viewBox="0 0 28 32" fill="none" xmlns="http://www.w3.org/2000/svg">
<path d="M22.9818 30.7114C21.2461 32.3959 19.3311 32.1333 17.5057 31.339C15.565 30.5288 13.7908 30.4776 11.7413 31.339C9.18894 32.4407 7.83431 32.1204 6.29714 30.7114C-2.38146 21.7766 -1.10049 8.16621 8.76301 7.65382C11.1552 7.78192 12.8301 8.97643 14.2392 9.07571C16.3336 8.64978 18.3383 7.42965 20.58 7.58978C23.2733 7.80754 25.2876 8.87075 26.6326 10.7826C21.0924 14.1131 22.4054 21.4147 27.4941 23.4643C26.4757 26.1383 25.1691 28.7803 22.9786 30.7338L22.9818 30.7114ZM14.047 7.55775C13.7876 3.58673 17.0061 0.320244 20.7081 0C21.2173 4.57948 16.5449 8.00609 14.047 7.55775Z" fill="black"/>
</svg>
