<svg width="22" height="28" viewBox="0 0 22 28" fill="none" xmlns="http://www.w3.org/2000/svg">
<path fill-rule="evenodd" clip-rule="evenodd" d="M14.4722 0H9.90069V6.92032C9.21821 6.74503 8.65344 6.68652 7.9121 6.68652C3.1347 6.68652 0.0517578 9.69082 0.0517578 14.3199C0.0517578 19.1244 2.9582 21.626 8.54164 21.6319C10.4068 21.6319 12.1306 21.4571 14.4722 21.0129V0ZM8.51942 10.4733C9.08427 10.4733 9.52547 10.5317 10.0609 10.7071V17.9962C9.40783 18.0839 8.99597 18.1125 8.49007 18.1125C6.14848 18.1125 4.87172 16.7799 4.87172 14.3665C4.87172 11.8877 6.20726 10.4733 8.51942 10.4733ZM21.9477 17.7715V7.25075H17.382V16.2051C17.382 20.1562 17.1761 21.6584 16.5231 22.9553C15.8994 24.2236 14.9228 25.0547 12.9048 25.9953L17.1467 28C19.1648 26.9941 20.1414 26.0835 20.8827 24.6393C21.677 23.1371 21.9477 21.3947 21.9477 17.7715ZM21.4928 0H16.9213V4.65838H21.4928V0Z" fill="#0C4B33"/>
</svg>
