<svg width="38" height="14" viewBox="0 0 38 14" fill="none" xmlns="http://www.w3.org/2000/svg">
<path fill-rule="evenodd" clip-rule="evenodd" d="M23.69 3.91064C23.0505 4.07305 22.5239 4.21287 21.9878 4.35523L21.9878 4.35525C21.5603 4.46877 21.1267 4.58391 20.6248 4.71341L20.5947 4.72149C20.3495 4.78736 20.3239 4.79422 20.0957 4.53096C19.8221 4.2208 19.6214 4.02011 19.2382 3.83766C18.0888 3.27207 16.9759 3.43628 15.9359 4.11133C14.6953 4.9141 14.0567 6.10001 14.075 7.57784C14.0932 9.03742 15.0967 10.2416 16.538 10.4423C17.7787 10.6065 18.8186 10.1686 19.6396 9.23811C19.7614 9.08927 19.8731 8.93038 19.9972 8.75402L19.9976 8.75347C20.0407 8.69221 20.0852 8.62885 20.1322 8.56306H16.611C16.2278 8.56306 16.1366 8.32587 16.2643 8.01571C16.5015 7.45013 16.9394 6.5014 17.1948 6.02703C17.2496 5.91757 17.3773 5.73512 17.6509 5.73512H23.5223C23.786 4.89968 24.2138 4.11025 24.7846 3.3633C26.1164 1.6118 27.722 0.699566 29.8931 0.316426C31.7541 -0.0119801 33.5055 0.170468 35.0928 1.24691C36.5342 2.23213 37.4282 3.56399 37.6654 5.31549C37.9755 7.77853 37.264 9.78546 35.5672 11.5005C34.3631 12.7229 32.8852 13.4891 31.1885 13.8358C30.8648 13.8957 30.5411 13.9242 30.2226 13.9521C30.0564 13.9667 29.8916 13.9812 29.7289 14C28.0686 13.9635 26.5543 13.4891 25.2772 12.3945C24.379 11.618 23.7602 10.6638 23.4528 9.5529C23.2394 9.98375 22.9843 10.3964 22.6865 10.7889C21.3729 12.5222 19.6579 13.5986 17.4867 13.8905C15.6987 14.1277 14.0385 13.7811 12.5789 12.6864C11.2288 11.6647 10.4625 10.3146 10.2618 8.63603C10.0246 6.64736 10.6085 4.85937 11.8126 3.29032C13.108 1.59356 14.823 0.517116 16.9211 0.133976C18.6362 -0.176185 20.2782 0.0245075 21.756 1.02797C22.723 1.66654 23.4163 2.54228 23.8724 3.60048C23.9819 3.76468 23.9089 3.85591 23.69 3.91064ZM3.0917 4.23902C3.01872 4.23902 3.00047 4.20253 3.03696 4.1478L3.4201 3.65519C3.45659 3.60045 3.54782 3.56397 3.62079 3.56397H10.1342C10.2072 3.56397 10.2254 3.6187 10.1889 3.67343L9.87875 4.1478C9.84226 4.20253 9.75103 4.25727 9.6963 4.25727L3.0917 4.23902ZM0.336651 5.91757C0.263672 5.91757 0.245427 5.88108 0.281917 5.82635L0.665057 5.33374C0.701546 5.279 0.79277 5.24251 0.865749 5.24251H9.18536C9.25834 5.24251 9.29483 5.29725 9.27658 5.35198L9.13062 5.78986C9.11238 5.86284 9.0394 5.89932 8.96642 5.89932L0.336651 5.91757ZM4.69712 7.48665C4.66063 7.54138 4.67887 7.59612 4.75185 7.59612L8.72921 7.61436C8.78395 7.61436 8.85692 7.55963 8.85692 7.48665L8.89341 7.04877C8.89341 6.9758 8.85692 6.92106 8.78395 6.92106H5.13499C5.06201 6.92106 4.98904 6.9758 4.95255 7.03053L4.69712 7.48665ZM34.0585 6.43402C34.062 6.4953 34.0658 6.55987 34.0711 6.62911C33.9799 8.19816 33.1954 9.36583 31.7541 10.1139C30.7871 10.6065 29.7836 10.6612 28.7802 10.2233C27.4665 9.6395 26.7732 8.19816 27.1016 6.77507C27.503 5.06006 28.5977 3.98362 30.2945 3.60048C32.0277 3.1991 33.688 4.2208 34.0164 6.02704C34.0422 6.15622 34.0498 6.28541 34.0585 6.43402Z" fill="#00ACD7"/>
</svg>
