<svg width="24" height="34" viewBox="0 0 24 34" fill="none" xmlns="http://www.w3.org/2000/svg">
<path d="M7.72956 25.8953C7.72956 25.8953 6.48602 26.6185 8.61456 26.8632C11.1932 27.1574 12.5111 27.1152 15.3529 26.5774C15.3529 26.5774 16.1 27.0458 17.1434 27.4516C10.773 30.1818 2.72599 27.2934 7.72956 25.8953Z" fill="#5382A1"/>
<path d="M6.951 22.3326C6.951 22.3326 5.55624 23.365 7.68636 23.5853C10.441 23.8695 12.6163 23.8928 16.3806 23.1679C16.3806 23.1679 16.9012 23.6958 17.7199 23.9844C10.0178 26.2366 1.43897 24.162 6.951 22.3326Z" fill="#5382A1"/>
<path d="M13.5136 16.289C15.0833 18.0962 13.1012 19.7224 13.1012 19.7224C13.1012 19.7224 17.0868 17.6649 15.2564 15.0885C13.5469 12.6857 12.2359 11.4919 19.3331 7.37579C19.3331 7.37579 8.1928 10.1581 13.5136 16.289Z" fill="#F8981D"/>
<path d="M21.9387 28.5305C21.9387 28.5305 22.859 29.2888 20.9252 29.8754C17.2482 30.9893 5.62094 31.3257 2.39095 29.9198C1.22984 29.4147 3.40724 28.7137 4.09216 28.5666C4.80647 28.4117 5.21467 28.4406 5.21467 28.4406C3.92341 27.5309 -3.13152 30.2267 1.63112 30.9987C14.6195 33.105 25.3077 30.0502 21.9387 28.5305Z" fill="#5382A1"/>
<path d="M8.32753 18.6411C8.32753 18.6411 2.41318 20.0459 6.23311 20.556C7.84601 20.7719 11.0613 20.7231 14.0562 20.4721C16.5038 20.2657 18.9615 19.8267 18.9615 19.8267C18.9615 19.8267 18.0985 20.1963 17.4741 20.6226C11.4682 22.2022 -0.134176 21.4674 3.20599 19.8517C6.03077 18.4862 8.32753 18.6411 8.32753 18.6411Z" fill="#5382A1"/>
<path d="M18.9371 24.5716C25.0424 21.399 22.2195 18.3502 20.2492 18.761C19.7663 18.8615 19.551 18.9486 19.551 18.9486C19.551 18.9486 19.7303 18.6677 20.0727 18.5462C23.9706 17.1758 26.9683 22.5879 18.8144 24.7315C18.8144 24.7316 18.9089 24.6471 18.9371 24.5716Z" fill="#5382A1"/>
<path d="M15.2562 0.729248C15.2562 0.729248 18.6374 4.1116 12.0493 9.3127C6.76626 13.4849 10.8446 15.8637 12.0471 18.5817C8.9633 15.7994 6.70022 13.3501 8.21847 11.0705C10.4469 7.72427 16.6205 6.10191 15.2562 0.729248Z" fill="#F8981D"/>
<path d="M8.92736 33.1684C14.7877 33.5435 23.7869 32.9603 24 30.1873C24 30.1873 23.5903 31.2385 19.1568 32.0733C14.1549 33.0146 7.98571 32.9047 4.32672 32.3015C4.32681 32.3014 5.07576 32.9214 8.92736 33.1684Z" fill="#5382A1"/>
</svg>
