<svg width="25" height="18" viewBox="0 0 25 18" fill="none" xmlns="http://www.w3.org/2000/svg">
<path d="M7.47656 1V12.3437C7.46875 14.1875 6.60937 15.1719 5.07813 15.1719C3.66406 15.1719 2.67969 14.3281 2.67188 13H0.273438C0.273438 15.7031 2.30469 17.2187 5.01563 17.2187C7.95313 17.2187 9.875 15.4219 9.88281 12.3437V1H7.47656ZM22.273 5.20312H24.6012C24.5309 2.64062 22.2652 0.781249 19.0152 0.781249C15.8043 0.781249 13.3434 2.61719 13.3434 5.375C13.3434 7.60156 14.9371 8.90625 17.5074 9.60156L19.398 10.1172C21.109 10.5703 22.4293 11.1328 22.4293 12.5547C22.4293 14.1172 20.9371 15.1484 18.8824 15.1484C17.023 15.1484 15.4762 14.3203 15.3355 12.5781H12.9137C13.0699 15.4766 15.3121 17.2656 18.898 17.2656C22.6559 17.2656 24.8199 15.2891 24.8199 12.5781C24.8199 9.69531 22.2496 8.57812 20.2184 8.07812L18.6559 7.67187C17.4059 7.35156 15.7418 6.76562 15.7496 5.23438C15.7496 3.875 16.9918 2.86719 18.9605 2.86719C20.7965 2.86719 22.1012 3.72656 22.273 5.20312Z" fill="black"/>
</svg>
