<svg width="32" height="34" viewBox="0 0 32 34" fill="none" xmlns="http://www.w3.org/2000/svg">
<mask id="path-1-outside-1" maskUnits="userSpaceOnUse" x="-0.5" y="0" width="33" height="34" fill="black">
<rect fill="white" x="-0.5" width="33" height="34"/>
<path fill-rule="evenodd" clip-rule="evenodd" d="M31.4825 8.23924C31.494 8.2819 31.4999 8.32589 31.5 8.37008V15.2388C31.5 15.327 31.4768 15.4135 31.4327 15.4898C31.3887 15.5661 31.3253 15.6294 31.249 15.6732L25.4997 18.9924V25.5713C25.4997 25.7503 25.4048 25.9156 25.2499 26.0057L13.2486 32.9333C13.2212 32.949 13.1912 32.959 13.1612 32.9696C13.15 32.9734 13.1394 32.9803 13.1275 32.9834C13.0436 33.0055 12.9554 33.0055 12.8715 32.9834C12.8578 32.9796 12.8453 32.9721 12.8322 32.9671C12.8047 32.9571 12.776 32.9483 12.7498 32.9333L0.750977 26.0057C0.674752 25.9618 0.611417 25.8986 0.567355 25.8223C0.523292 25.746 0.50006 25.6594 0.5 25.5713L0.5 4.96514C0.5 4.92007 0.506243 4.87625 0.517481 4.83368C0.521227 4.81928 0.529967 4.80613 0.534962 4.79173C0.544327 4.76544 0.553067 4.73852 0.566802 4.71411C0.576167 4.69783 0.589902 4.68469 0.60114 4.66966C0.615499 4.64963 0.62861 4.62897 0.645467 4.61144C0.659826 4.59704 0.678556 4.5864 0.694788 4.57388C0.712893 4.55885 0.729126 4.54258 0.749728 4.53068H0.750352L6.75007 1.0669C6.82604 1.02307 6.91215 1 6.9998 1C7.08745 1 7.17356 1.02307 7.24953 1.0669L13.2492 4.53068H13.2505C13.2705 4.5432 13.2873 4.55885 13.3054 4.57325C13.3217 4.58577 13.3398 4.59704 13.3541 4.61081C13.3716 4.62897 13.3841 4.64963 13.3991 4.66966C13.4097 4.68469 13.4241 4.69783 13.4328 4.71411C13.4472 4.73915 13.4553 4.76544 13.4653 4.79173C13.4703 4.80613 13.479 4.81928 13.4827 4.8343C13.4942 4.87697 13.5001 4.92095 13.5002 4.96514V17.8355L18.4998 14.9489V8.36945C18.4998 8.32563 18.506 8.28118 18.5173 8.23924C18.5216 8.22421 18.5297 8.21107 18.5347 8.19667C18.5447 8.17038 18.5535 8.14346 18.5672 8.11904C18.5766 8.10277 18.5903 8.08962 18.6009 8.07459C18.6159 8.05456 18.6284 8.0339 18.6459 8.01637C18.6602 8.00198 18.6783 7.99133 18.6946 7.97881C18.7133 7.96379 18.7295 7.94751 18.7495 7.93562H18.7501L24.7505 4.47184C24.8264 4.42794 24.9125 4.40484 25.0002 4.40484C25.0879 4.40484 25.174 4.42794 25.2499 4.47184L31.2496 7.93562C31.2709 7.94814 31.2871 7.96379 31.3058 7.97819C31.3214 7.99071 31.3396 8.00198 31.3539 8.01575C31.3714 8.0339 31.3839 8.05456 31.3989 8.07459C31.4101 8.08962 31.4238 8.10277 31.4326 8.11904C31.4469 8.14346 31.455 8.17038 31.465 8.19667C31.4707 8.21107 31.4788 8.22421 31.4825 8.23924ZM30.4998 14.9489V9.23712L28.4003 10.4491L25.4997 12.1237V17.8355L30.5005 14.9489H30.4998ZM24.5001 25.2814V19.5659L21.647 21.1998L13.4996 25.8624V31.6318L24.5001 25.2814ZM1.50016 5.83218V25.2814L12.4994 31.6312V25.863L6.75319 22.6021L6.75132 22.6008L6.74882 22.5996C6.72947 22.5883 6.71324 22.572 6.69513 22.5582C6.67952 22.5457 6.66142 22.5357 6.64768 22.5219L6.64643 22.5201C6.6302 22.5044 6.61896 22.485 6.60523 22.4675C6.59274 22.4506 6.57776 22.4362 6.56777 22.4186L6.56715 22.4168C6.55591 22.398 6.54904 22.3754 6.54092 22.3542C6.53281 22.3354 6.52219 22.3178 6.5172 22.2978V22.2972C6.51096 22.2734 6.50971 22.2484 6.50721 22.2239C6.50471 22.2052 6.49972 22.1864 6.49972 22.1676V22.1664V8.71877L3.59975 7.04354L1.50016 5.83281V5.83218ZM7.00042 2.07981L2.00149 4.96514L6.99917 7.85048L11.9975 4.96452L6.99917 2.07981H7.00042ZM9.60009 20.0867L12.5001 18.4127V5.83218L10.4005 7.04416L7.49988 8.71877V21.2993L9.60009 20.0867ZM25.0002 5.48474L20.0019 8.37008L25.0002 11.2554L29.9979 8.36945L25.0002 5.48474ZM24.5001 12.1237L21.5995 10.4491L19.4999 9.23712V14.9489L22.3999 16.6229L24.5001 17.8355V12.1237ZM12.9989 24.9953L20.3303 20.7985L23.995 18.7013L19.0005 15.8179L13.2499 19.1377L8.0087 22.1632L12.9989 24.9953Z"/>
</mask>
<path fill-rule="evenodd" clip-rule="evenodd" d="M31.4825 8.23924C31.494 8.2819 31.4999 8.32589 31.5 8.37008V15.2388C31.5 15.327 31.4768 15.4135 31.4327 15.4898C31.3887 15.5661 31.3253 15.6294 31.249 15.6732L25.4997 18.9924V25.5713C25.4997 25.7503 25.4048 25.9156 25.2499 26.0057L13.2486 32.9333C13.2212 32.949 13.1912 32.959 13.1612 32.9696C13.15 32.9734 13.1394 32.9803 13.1275 32.9834C13.0436 33.0055 12.9554 33.0055 12.8715 32.9834C12.8578 32.9796 12.8453 32.9721 12.8322 32.9671C12.8047 32.9571 12.776 32.9483 12.7498 32.9333L0.750977 26.0057C0.674752 25.9618 0.611417 25.8986 0.567355 25.8223C0.523292 25.746 0.50006 25.6594 0.5 25.5713L0.5 4.96514C0.5 4.92007 0.506243 4.87625 0.517481 4.83368C0.521227 4.81928 0.529967 4.80613 0.534962 4.79173C0.544327 4.76544 0.553067 4.73852 0.566802 4.71411C0.576167 4.69783 0.589902 4.68469 0.60114 4.66966C0.615499 4.64963 0.62861 4.62897 0.645467 4.61144C0.659826 4.59704 0.678556 4.5864 0.694788 4.57388C0.712893 4.55885 0.729126 4.54258 0.749728 4.53068H0.750352L6.75007 1.0669C6.82604 1.02307 6.91215 1 6.9998 1C7.08745 1 7.17356 1.02307 7.24953 1.0669L13.2492 4.53068H13.2505C13.2705 4.5432 13.2873 4.55885 13.3054 4.57325C13.3217 4.58577 13.3398 4.59704 13.3541 4.61081C13.3716 4.62897 13.3841 4.64963 13.3991 4.66966C13.4097 4.68469 13.4241 4.69783 13.4328 4.71411C13.4472 4.73915 13.4553 4.76544 13.4653 4.79173C13.4703 4.80613 13.479 4.81928 13.4827 4.8343C13.4942 4.87697 13.5001 4.92095 13.5002 4.96514V17.8355L18.4998 14.9489V8.36945C18.4998 8.32563 18.506 8.28118 18.5173 8.23924C18.5216 8.22421 18.5297 8.21107 18.5347 8.19667C18.5447 8.17038 18.5535 8.14346 18.5672 8.11904C18.5766 8.10277 18.5903 8.08962 18.6009 8.07459C18.6159 8.05456 18.6284 8.0339 18.6459 8.01637C18.6602 8.00198 18.6783 7.99133 18.6946 7.97881C18.7133 7.96379 18.7295 7.94751 18.7495 7.93562H18.7501L24.7505 4.47184C24.8264 4.42794 24.9125 4.40484 25.0002 4.40484C25.0879 4.40484 25.174 4.42794 25.2499 4.47184L31.2496 7.93562C31.2709 7.94814 31.2871 7.96379 31.3058 7.97819C31.3214 7.99071 31.3396 8.00198 31.3539 8.01575C31.3714 8.0339 31.3839 8.05456 31.3989 8.07459C31.4101 8.08962 31.4238 8.10277 31.4326 8.11904C31.4469 8.14346 31.455 8.17038 31.465 8.19667C31.4707 8.21107 31.4788 8.22421 31.4825 8.23924ZM30.4998 14.9489V9.23712L28.4003 10.4491L25.4997 12.1237V17.8355L30.5005 14.9489H30.4998ZM24.5001 25.2814V19.5659L21.647 21.1998L13.4996 25.8624V31.6318L24.5001 25.2814ZM1.50016 5.83218V25.2814L12.4994 31.6312V25.863L6.75319 22.6021L6.75132 22.6008L6.74882 22.5996C6.72947 22.5883 6.71324 22.572 6.69513 22.5582C6.67952 22.5457 6.66142 22.5357 6.64768 22.5219L6.64643 22.5201C6.6302 22.5044 6.61896 22.485 6.60523 22.4675C6.59274 22.4506 6.57776 22.4362 6.56777 22.4186L6.56715 22.4168C6.55591 22.398 6.54904 22.3754 6.54092 22.3542C6.53281 22.3354 6.52219 22.3178 6.5172 22.2978V22.2972C6.51096 22.2734 6.50971 22.2484 6.50721 22.2239C6.50471 22.2052 6.49972 22.1864 6.49972 22.1676V22.1664V8.71877L3.59975 7.04354L1.50016 5.83281V5.83218ZM7.00042 2.07981L2.00149 4.96514L6.99917 7.85048L11.9975 4.96452L6.99917 2.07981H7.00042ZM9.60009 20.0867L12.5001 18.4127V5.83218L10.4005 7.04416L7.49988 8.71877V21.2993L9.60009 20.0867ZM25.0002 5.48474L20.0019 8.37008L25.0002 11.2554L29.9979 8.36945L25.0002 5.48474ZM24.5001 12.1237L21.5995 10.4491L19.4999 9.23712V14.9489L22.3999 16.6229L24.5001 17.8355V12.1237ZM12.9989 24.9953L20.3303 20.7985L23.995 18.7013L19.0005 15.8179L13.2499 19.1377L8.0087 22.1632L12.9989 24.9953Z" fill="#FF2D20"/>
<path fill-rule="evenodd" clip-rule="evenodd" d="M31.4825 8.23924C31.494 8.2819 31.4999 8.32589 31.5 8.37008V15.2388C31.5 15.327 31.4768 15.4135 31.4327 15.4898C31.3887 15.5661 31.3253 15.6294 31.249 15.6732L25.4997 18.9924V25.5713C25.4997 25.7503 25.4048 25.9156 25.2499 26.0057L13.2486 32.9333C13.2212 32.949 13.1912 32.959 13.1612 32.9696C13.15 32.9734 13.1394 32.9803 13.1275 32.9834C13.0436 33.0055 12.9554 33.0055 12.8715 32.9834C12.8578 32.9796 12.8453 32.9721 12.8322 32.9671C12.8047 32.9571 12.776 32.9483 12.7498 32.9333L0.750977 26.0057C0.674752 25.9618 0.611417 25.8986 0.567355 25.8223C0.523292 25.746 0.50006 25.6594 0.5 25.5713L0.5 4.96514C0.5 4.92007 0.506243 4.87625 0.517481 4.83368C0.521227 4.81928 0.529967 4.80613 0.534962 4.79173C0.544327 4.76544 0.553067 4.73852 0.566802 4.71411C0.576167 4.69783 0.589902 4.68469 0.60114 4.66966C0.615499 4.64963 0.62861 4.62897 0.645467 4.61144C0.659826 4.59704 0.678556 4.5864 0.694788 4.57388C0.712893 4.55885 0.729126 4.54258 0.749728 4.53068H0.750352L6.75007 1.0669C6.82604 1.02307 6.91215 1 6.9998 1C7.08745 1 7.17356 1.02307 7.24953 1.0669L13.2492 4.53068H13.2505C13.2705 4.5432 13.2873 4.55885 13.3054 4.57325C13.3217 4.58577 13.3398 4.59704 13.3541 4.61081C13.3716 4.62897 13.3841 4.64963 13.3991 4.66966C13.4097 4.68469 13.4241 4.69783 13.4328 4.71411C13.4472 4.73915 13.4553 4.76544 13.4653 4.79173C13.4703 4.80613 13.479 4.81928 13.4827 4.8343C13.4942 4.87697 13.5001 4.92095 13.5002 4.96514V17.8355L18.4998 14.9489V8.36945C18.4998 8.32563 18.506 8.28118 18.5173 8.23924C18.5216 8.22421 18.5297 8.21107 18.5347 8.19667C18.5447 8.17038 18.5535 8.14346 18.5672 8.11904C18.5766 8.10277 18.5903 8.08962 18.6009 8.07459C18.6159 8.05456 18.6284 8.0339 18.6459 8.01637C18.6602 8.00198 18.6783 7.99133 18.6946 7.97881C18.7133 7.96379 18.7295 7.94751 18.7495 7.93562H18.7501L24.7505 4.47184C24.8264 4.42794 24.9125 4.40484 25.0002 4.40484C25.0879 4.40484 25.174 4.42794 25.2499 4.47184L31.2496 7.93562C31.2709 7.94814 31.2871 7.96379 31.3058 7.97819C31.3214 7.99071 31.3396 8.00198 31.3539 8.01575C31.3714 8.0339 31.3839 8.05456 31.3989 8.07459C31.4101 8.08962 31.4238 8.10277 31.4326 8.11904C31.4469 8.14346 31.455 8.17038 31.465 8.19667C31.4707 8.21107 31.4788 8.22421 31.4825 8.23924ZM30.4998 14.9489V9.23712L28.4003 10.4491L25.4997 12.1237V17.8355L30.5005 14.9489H30.4998ZM24.5001 25.2814V19.5659L21.647 21.1998L13.4996 25.8624V31.6318L24.5001 25.2814ZM1.50016 5.83218V25.2814L12.4994 31.6312V25.863L6.75319 22.6021L6.75132 22.6008L6.74882 22.5996C6.72947 22.5883 6.71324 22.572 6.69513 22.5582C6.67952 22.5457 6.66142 22.5357 6.64768 22.5219L6.64643 22.5201C6.6302 22.5044 6.61896 22.485 6.60523 22.4675C6.59274 22.4506 6.57776 22.4362 6.56777 22.4186L6.56715 22.4168C6.55591 22.398 6.54904 22.3754 6.54092 22.3542C6.53281 22.3354 6.52219 22.3178 6.5172 22.2978V22.2972C6.51096 22.2734 6.50971 22.2484 6.50721 22.2239C6.50471 22.2052 6.49972 22.1864 6.49972 22.1676V22.1664V8.71877L3.59975 7.04354L1.50016 5.83281V5.83218ZM7.00042 2.07981L2.00149 4.96514L6.99917 7.85048L11.9975 4.96452L6.99917 2.07981H7.00042ZM9.60009 20.0867L12.5001 18.4127V5.83218L10.4005 7.04416L7.49988 8.71877V21.2993L9.60009 20.0867ZM25.0002 5.48474L20.0019 8.37008L25.0002 11.2554L29.9979 8.36945L25.0002 5.48474ZM24.5001 12.1237L21.5995 10.4491L19.4999 9.23712V14.9489L22.3999 16.6229L24.5001 17.8355V12.1237ZM12.9989 24.9953L20.3303 20.7985L23.995 18.7013L19.0005 15.8179L13.2499 19.1377L8.0087 22.1632L12.9989 24.9953Z" stroke="#FF2D20" stroke-width="0.5" mask="url(#path-1-outside-1)"/>
</svg>
