<svg width="34" height="10" viewBox="0 0 34 10" fill="none" xmlns="http://www.w3.org/2000/svg">
<path d="M7.66974 0.545454H6.2571V7.48864H6.16939L1.35902 0.545454H0.0387074V10H1.4652V3.06605H1.55291L6.35866 10H7.66974V0.545454ZM9.90062 10H15.8836V8.77202H11.3271V5.87749H15.5189V4.65412H11.3271V1.77344H15.8282V0.545454H9.90062V10ZM18.8762 0.545454H17.2235L20.2196 5.27273L17.205 10H18.8669L21.1382 6.35298H21.2121L23.4834 10H25.1453L22.1816 5.27273L25.1269 0.545454H23.4742L21.2121 4.24325H21.1382L18.8762 0.545454ZM26.2256 1.77344H29.1709V10H30.5928V1.77344H33.5427V0.545454H26.2256V1.77344Z" fill="#0070F3"/>
</svg>
