<svg width="30" height="32" viewBox="0 0 30 32" fill="none" xmlns="http://www.w3.org/2000/svg">
<path d="M15 32C14.5342 32 14.0994 31.8824 13.6957 31.6766L9.56522 29.3542C8.9441 29.0308 9.25466 28.9132 9.44099 28.8544C10.2795 28.5898 10.4348 28.531 11.3043 28.0606C11.3975 28.0018 11.5217 28.0312 11.6149 28.09L14.7826 29.8833C14.9068 29.9421 15.0621 29.9421 15.1553 29.8833L27.5466 23.0923C27.6708 23.0335 27.7329 22.9159 27.7329 22.7689V9.21635C27.7329 9.06936 27.6708 8.95177 27.5466 8.89297L15.1553 2.13137C15.0311 2.07258 14.8758 2.07258 14.7826 2.13137L2.3913 8.89297C2.26708 8.95177 2.20497 9.09876 2.20497 9.21635V22.7689C2.20497 22.8865 2.26708 23.0335 2.3913 23.0923L5.7764 24.9444C7.6087 25.8264 8.75776 24.7974 8.75776 23.7685V10.3923C8.75776 10.2159 8.91304 10.0395 9.13043 10.0395H10.7143C10.9006 10.0395 11.087 10.1865 11.087 10.3923V23.7685C11.087 26.0909 9.75155 27.4433 7.42236 27.4433C6.70807 27.4433 6.14907 27.4433 4.56522 26.7083L1.30435 24.9444C0.496894 24.5034 0 23.6803 0 22.7983V9.24575C0 8.3638 0.496894 7.54065 1.30435 7.09968L13.6957 0.308682C14.472 -0.102894 15.528 -0.102894 16.3043 0.308682L28.6957 7.09968C29.5031 7.54065 30 8.3638 30 9.24575V22.7983C30 23.6803 29.5031 24.5034 28.6957 24.9444L16.3043 31.7354C15.9006 31.9118 15.4348 32 15 32ZM18.8199 22.6808C13.3851 22.6808 12.2671 20.3289 12.2671 18.3298C12.2671 18.1534 12.4224 17.977 12.6398 17.977H14.2547C14.441 17.977 14.5963 18.0946 14.5963 18.271C14.8447 19.8291 15.559 20.5935 18.8509 20.5935C21.4596 20.5935 22.5776 20.0349 22.5776 18.712C22.5776 17.9476 22.2671 17.3891 18.1988 17.0069C14.8137 16.6835 12.7019 15.978 12.7019 13.4203C12.7019 11.039 14.8137 9.62793 18.354 9.62793C22.3292 9.62793 24.2857 10.9215 24.5342 13.7437C24.5342 13.8319 24.5031 13.9201 24.441 14.0083C24.3789 14.0671 24.2857 14.1259 24.1925 14.1259H22.5776C22.4224 14.1259 22.2671 14.0083 22.236 13.8613C21.8634 12.2444 20.9006 11.7152 18.354 11.7152C15.4969 11.7152 15.1553 12.6559 15.1553 13.3615C15.1553 14.2141 15.559 14.4786 19.4099 14.949C23.2298 15.4194 25.0311 16.0955 25.0311 18.6238C25 21.2108 22.764 22.6808 18.8199 22.6808Z" fill="#539E43"/>
</svg>
