<svg width="34" height="18" viewBox="0 0 34 18" fill="none" xmlns="http://www.w3.org/2000/svg">
<path fill-rule="evenodd" clip-rule="evenodd" d="M18.3486 13.8216C18.2743 13.8216 18.2039 13.7875 18.1567 13.7284C18.1094 13.6694 18.0902 13.5919 18.1044 13.5168L19.1437 8.01342C19.2425 7.49005 19.2182 7.11439 19.0751 6.95566C18.9875 6.85863 18.7244 6.69589 17.9465 6.69589H16.0637L14.757 13.6144C14.7343 13.7347 14.6318 13.8216 14.5127 13.8216H11.9002C11.8259 13.8216 11.7555 13.7875 11.7082 13.7284C11.6609 13.6694 11.6418 13.5918 11.6559 13.5168L14.0054 1.0787C14.0281 0.958457 14.1306 0.871582 14.2497 0.871582H16.8622C16.9365 0.871582 17.0069 0.905718 17.0542 0.964686C17.1015 1.02374 17.1206 1.10131 17.1065 1.17641L16.5395 4.17842H18.565C20.1081 4.17842 21.1544 4.45833 21.7639 5.03419C22.3851 5.62166 22.5789 6.56097 22.34 7.82636L21.2469 13.6144C21.2242 13.7347 21.1218 13.8216 21.0026 13.8216H18.3486ZM5.5502 11.3469C6.56384 11.3469 7.32056 11.157 7.79936 10.7827C8.27303 10.4122 8.60019 9.77042 8.77166 8.87514C8.93154 8.03832 8.87063 7.45401 8.59069 7.13868C8.30445 6.81662 7.6856 6.65328 6.75135 6.65328H5.13147L4.23344 11.3469H5.5502ZM0.251975 17.1285C0.176783 17.1285 0.105369 17.0944 0.0575655 17.0353C0.00967488 16.9763 -0.00973011 16.8987 0.00463527 16.8237L2.38461 4.3856C2.40763 4.26536 2.51138 4.17848 2.63203 4.17848H7.76147C9.37354 4.17848 10.5734 4.6231 11.3276 5.50011C12.0859 6.38174 12.32 7.6141 12.0235 9.1629C11.9029 9.79389 11.6954 10.3799 11.4068 10.9046C11.1179 11.4298 10.736 11.9158 10.2717 12.3493C9.71582 12.8777 9.08671 13.2609 8.40351 13.4864C7.73114 13.7088 6.86763 13.8217 5.83703 13.8217H3.76001L3.16687 16.9213C3.14385 17.0416 3.04017 17.1285 2.91953 17.1285H0.251975ZM29.4845 10.7827C28.9873 11.157 28.2016 11.3469 27.1491 11.3469H25.7818L26.7143 6.65328H28.3963C29.3664 6.65328 30.009 6.81662 30.3062 7.13868C30.597 7.45401 30.6602 8.03832 30.4942 8.87514C30.3161 9.7705 29.9764 10.4123 29.4845 10.7827ZM21.4458 17.0353C21.4954 17.0944 21.5695 17.1285 21.6476 17.1285H24.4174C24.5428 17.1285 24.6505 17.0416 24.6744 16.9213L25.2901 13.8217H27.4469C28.517 13.8217 29.4137 13.7088 30.1118 13.4864C30.8213 13.2609 31.4745 12.8777 32.0517 12.3493C32.5338 11.9158 32.9303 11.4298 33.2303 10.9046C33.53 10.3799 33.7454 9.79389 33.8708 9.1629C34.1786 7.61402 33.9356 6.38165 33.1483 5.50011C32.365 4.6231 31.1192 4.17848 29.4452 4.17848H24.119C23.9936 4.17848 23.886 4.26536 23.862 4.3856L21.3907 16.8237C21.3758 16.8987 21.396 16.9763 21.4458 17.0353Z" fill="#6082BB"/>
</svg>
