<svg width="32" height="32" viewBox="0 0 32 32" fill="none" xmlns="http://www.w3.org/2000/svg">
<path d="M15.8846 0.083374C7.76105 0.0833746 8.26834 3.60625 8.26834 3.60625L8.2774 7.25591H16.0295V8.35172H5.19828C5.19828 8.35172 0 7.76219 0 15.959C-5.79599e-07 24.1557 4.53717 23.865 4.53717 23.865H7.24499V20.0614C7.24499 20.0614 7.09903 15.5243 11.7097 15.5243C16.3204 15.5243 19.3985 15.5243 19.3985 15.5243C19.3985 15.5243 23.7183 15.5941 23.7183 11.3493C23.7183 7.10458 23.7183 4.33075 23.7183 4.33075C23.7183 4.33075 24.3741 0.083374 15.8846 0.083374ZM11.6101 2.53761C12.3814 2.53761 13.0048 3.16099 13.0048 3.93227C13.0048 4.70356 12.3814 5.32693 11.6101 5.32693C10.8388 5.32693 10.2154 4.70356 10.2154 3.93227C10.2154 3.16099 10.8388 2.53761 11.6101 2.53761Z" fill="url(#paint0_linear)"/>
<path d="M16.1153 31.9166C24.2389 31.9166 23.7316 28.3937 23.7316 28.3937L23.7226 24.7441H15.9704V23.6483H26.8017C26.8017 23.6483 32 24.2378 32 16.041C32 7.84427 27.4628 8.13494 27.4628 8.13494H24.755V11.9386C24.755 11.9386 24.901 16.4757 20.2903 16.4757C15.6796 16.4757 12.6015 16.4757 12.6015 16.4757C12.6015 16.4757 8.28171 16.4059 8.28171 20.6507C8.28171 24.8954 8.28171 27.6692 8.28171 27.6692C8.28171 27.6692 7.62584 31.9166 16.1153 31.9166ZM20.3899 29.4624C19.6186 29.4624 18.9952 28.839 18.9952 28.0677C18.9952 27.2964 19.6186 26.6731 20.3899 26.6731C21.1612 26.6731 21.7846 27.2964 21.7846 28.0677C21.7846 28.839 21.1612 29.4624 20.3899 29.4624Z" fill="url(#paint1_linear)"/>
<defs>
<linearGradient id="paint0_linear" x1="3.07526" y1="2.86589" x2="18.8983" y2="18.7419" gradientUnits="userSpaceOnUse">
<stop stop-color="#387EB8"/>
<stop offset="1" stop-color="#366994"/>
</linearGradient>
<linearGradient id="paint1_linear" x1="12.8089" y1="12.9654" x2="29.803" y2="29.2465" gradientUnits="userSpaceOnUse">
<stop stop-color="#FFE052"/>
<stop offset="1" stop-color="#FFC331"/>
</linearGradient>
</defs>
</svg>
