<svg width="34" height="22" viewBox="0 0 34 22" fill="none" xmlns="http://www.w3.org/2000/svg">
<path fill-rule="evenodd" clip-rule="evenodd" d="M24.2407 7.10232L24.3007 6.15787C24.7804 6.18785 25.2751 6.24782 25.7848 6.35276L25.7249 7.28221C25.2302 7.17727 24.7355 7.11731 24.2407 7.10232ZM18.9039 1.48062H18.754C18.3192 1.48062 17.8845 1.49562 17.4497 1.54059L17.1649 0.656109C17.6596 0.596144 18.1393 0.566162 18.6041 0.566162L18.9039 1.48062ZM19.8183 8.03177L19.4735 6.99738C19.8483 6.83248 20.2831 6.66757 20.7928 6.51766L21.1226 7.50708C20.6878 7.642 20.2531 7.82189 19.8183 8.03177ZM11.9929 2.02031L12.6675 3.0547C12.2778 3.24958 11.903 3.47445 11.5132 3.71431L10.8236 2.66493C11.2284 2.42507 11.6182 2.21519 11.9929 2.02031ZM16.4603 10.8801L15.7407 9.80073C16.0106 9.45593 16.3254 9.11113 16.6702 8.79632L17.3448 9.81572C17.015 10.1605 16.7152 10.5053 16.4603 10.8801ZM14.7813 15.5873L13.567 14.6279C13.6869 14.0882 13.8219 13.5335 14.0168 12.9789L15.0961 13.8334C14.9462 14.418 14.8413 15.0027 14.7813 15.5873ZM5.93651 6.57763L7.00088 7.50708C6.64109 7.88186 6.2963 8.28662 5.98148 8.69138L4.82716 7.70196C5.17196 7.32718 5.54674 6.9524 5.93651 6.57763ZM0.749559 13.5785L2.47355 14.2081C2.23369 14.7628 1.91887 15.4974 1.72399 16.0071L0 15.3774C0.149912 14.9727 0.464727 14.2231 0.749559 13.5785ZM13.522 20.3245C13.4471 19.8748 13.3721 19.2302 13.3422 18.4356L14.9612 19.0203C15.0511 19.7249 15.1861 20.3845 15.321 20.9692L13.522 20.3245ZM12.8924 21.4339H1.04938C1.04938 21.4339 1.48413 16.9965 4.63228 11.7496C7.78042 6.50266 13.1473 2.52999 17.5247 2.14022C26.2046 1.27073 34 9.05116 34 9.05116C34 9.05116 33.7452 9.23105 33.4753 9.45592C25.2666 3.38611 20.1369 5.92632 18.3145 6.82876C18.2465 6.86244 18.1831 6.89383 18.1243 6.92241C10.6287 11.1049 12.8924 21.4339 12.8924 21.4339ZM25.7848 1.97532L25.7249 2.97973C25.2452 2.78484 24.7654 2.60495 24.2707 2.44005L24.3307 1.45063C25.2751 1.72047 25.6499 1.90036 25.7848 1.97532Z" fill="#CC0000"/>
</svg>
