<svg width="32" height="34" viewBox="0 0 32 34" fill="none" xmlns="http://www.w3.org/2000/svg">
<path d="M21.1909 14.003C23.3253 17.6998 24.5964 21.3874 24.9486 24.3409C25.1249 25.819 25.0666 27.0759 24.7999 28.0456C24.5344 29.0109 24.0797 29.6397 23.493 29.9784C22.9062 30.3172 22.1343 30.3966 21.1656 30.1439C20.1925 29.89 19.0748 29.312 17.8828 28.4203C15.5012 26.6385 12.9432 23.6939 10.8088 19.9971C8.67442 16.3002 7.40334 12.6126 7.05109 9.65916C6.8748 8.18101 6.93314 6.92408 7.19981 5.95443C7.46528 4.98916 7.91998 4.36034 8.50675 4.02157C9.09352 3.6828 9.86544 3.60342 10.8341 3.85616C11.8072 4.11004 12.9249 4.68797 14.1169 5.57973C16.4985 7.3615 19.0565 10.3061 21.1909 14.003Z" stroke="#53C1DE" stroke-width="1.5"/>
<path d="M10.8089 14.003C8.67447 17.6998 7.40339 21.3874 7.05114 24.3409C6.87484 25.819 6.93319 27.0759 7.19986 28.0456C7.46532 29.0109 7.92003 29.6397 8.5068 29.9784C9.09357 30.3172 9.86549 30.3966 10.8342 30.1439C11.8072 29.89 12.925 29.312 14.1169 28.4203C16.4985 26.6385 19.0565 23.6939 21.1909 19.9971C23.3253 16.3002 24.5964 12.6126 24.9487 9.65916C25.125 8.18101 25.0666 6.92408 24.7999 5.95443C24.5345 4.98916 24.0798 4.36034 23.493 4.02157C22.9062 3.6828 22.1343 3.60342 21.1656 3.85616C20.1926 4.11004 19.0748 4.68797 17.8829 5.57973C15.5013 7.3615 12.9433 10.3061 10.8089 14.003Z" stroke="#53C1DE" stroke-width="1.5"/>
<path d="M16 11.0058C11.7312 11.0058 7.90212 11.7488 5.16826 12.9205C3.79999 13.5069 2.74063 14.1858 2.03423 14.9016C1.33101 15.6141 1.01379 16.3223 1.01379 16.9999C1.01379 17.6774 1.33101 18.3856 2.03423 19.0982C2.74063 19.8139 3.79999 20.4929 5.16826 21.0793C7.90212 22.251 11.7312 22.994 16 22.994C20.2688 22.994 24.0979 22.251 26.8317 21.0793C28.2 20.4929 29.2594 19.8139 29.9658 19.0982C30.669 18.3856 30.9862 17.6774 30.9862 16.9999C30.9862 16.3223 30.669 15.6141 29.9658 14.9016C29.2594 14.1858 28.2 13.5069 26.8317 12.9205C24.0979 11.7488 20.2688 11.0058 16 11.0058Z" stroke="#53C1DE" stroke-width="1.5"/>
<circle cx="15.9997" cy="16.9999" r="2.81004" fill="#53C1DE"/>
</svg>
